<?xml version="1.0" encoding="UTF-8"?>
<!DOCTYPE svg PUBLIC "-//W3C//DTD SVG 1.1//EN" "http://www.w3.org/Graphics/SVG/1.1/DTD/svg11.dtd">
<svg xmlns="http://www.w3.org/2000/svg" version="1.1" width="207px" height="250px" style="shape-rendering:geometricPrecision; text-rendering:geometricPrecision; image-rendering:optimizeQuality; fill-rule:evenodd; clip-rule:evenodd" xmlns:xlink="http://www.w3.org/1999/xlink">
<g><path style="opacity:0.029" fill="#21201d" d="M 16.5,19.5 C 28.5188,18.8118 28.8522,21.8118 17.5,28.5C 16.5159,25.5719 16.1826,22.5719 16.5,19.5 Z"/></g>
<g><path style="opacity:0.91" fill="#002b5c" d="M 96.5,168.5 C 112.338,140.828 127.671,112.828 142.5,84.5C 143.031,82.4559 144.198,80.7893 146,79.5C 148.669,73.3457 147.169,68.5124 141.5,65C 115.589,58.9394 89.9227,52.4394 64.5,45.5C 99.0534,36.6951 133.72,28.1951 168.5,20C 181.173,17.675 186.006,22.8416 183,35.5C 172,94.5 161,153.5 150,212.5C 149.298,217.683 147.964,222.683 146,227.5C 142.837,228.919 139.837,228.585 137,226.5C 123.669,207.01 110.169,187.677 96.5,168.5 Z"/></g>
<g><path style="opacity:0.852" fill="#0095ac" d="M 62.5,45.5 C 51.6302,48.804 40.6302,51.9706 29.5,55C 25.7882,57.6019 24.6215,61.1019 26,65.5C 46.9731,96.9547 68.4731,127.955 90.5,158.5C 90.5,159.167 90.5,159.833 90.5,160.5C 78.3632,176.818 66.3632,193.318 54.5,210C 48.9486,211.462 45.7819,209.295 45,203.5C 35.6667,153.5 26.3333,103.5 17,53.5C 16.3333,49.8333 16.3333,46.1667 17,42.5C 18.5604,38.2778 21.5604,36.6112 26,37.5C 38.328,39.4572 50.4946,42.1238 62.5,45.5 Z"/></g>
<g><path style="opacity:1" fill="#00587c" d="M 62.5,45.5 C 63.1667,45.5 63.8333,45.5 64.5,45.5C 89.9227,52.4394 115.589,58.9394 141.5,65C 147.169,68.5124 148.669,73.3457 146,79.5C 144.198,80.7893 143.031,82.4559 142.5,84.5C 124.81,108.867 107.477,133.533 90.5,158.5C 68.4731,127.955 46.9731,96.9547 26,65.5C 24.6215,61.1019 25.7882,57.6019 29.5,55C 40.6302,51.9706 51.6302,48.804 62.5,45.5 Z"/></g>
<g><path style="opacity:0.004" fill="#132133" d="M 184.5,73.5 C 183.549,72.0813 183.216,70.4147 183.5,68.5C 185.527,68.3379 187.527,68.5045 189.5,69C 187.382,70.0491 185.716,71.5491 184.5,73.5 Z"/></g>
<g><path style="opacity:0.004" fill="#000000" d="M 184.5,73.5 C 185.833,74.1667 185.833,74.1667 184.5,73.5 Z"/></g>
<g><path style="opacity:0.004" fill="#000000" d="M 188.5,76.5 C 189.662,94.9955 189.829,113.662 189,132.5C 188.691,131.234 188.191,130.067 187.5,129C 187.746,109.97 188.079,92.4699 188.5,76.5 Z"/></g>
<g><path style="opacity:0.004" fill="#000000" d="M 184.5,79.5 C 185.833,80.1667 185.833,80.1667 184.5,79.5 Z"/></g>
<g><path style="opacity:0.004" fill="#000000" d="M 184.5,81.5 C 185.833,82.1667 185.833,82.1667 184.5,81.5 Z"/></g>
<g><path style="opacity:0.004" fill="#000000" d="M 184.5,83.5 C 185.833,84.1667 185.833,84.1667 184.5,83.5 Z"/></g>
<g><path style="opacity:0.004" fill="#000000" d="M 184.5,85.5 C 185.833,86.1667 185.833,86.1667 184.5,85.5 Z"/></g>
<g><path style="opacity:0.004" fill="#000000" d="M 184.5,87.5 C 185.833,88.1667 185.833,88.1667 184.5,87.5 Z"/></g>
<g><path style="opacity:0.004" fill="#000000" d="M 184.5,89.5 C 185.833,90.1667 185.833,90.1667 184.5,89.5 Z"/></g>
<g><path style="opacity:0.004" fill="#000000" d="M 184.5,91.5 C 185.833,92.1667 185.833,92.1667 184.5,91.5 Z"/></g>
<g><path style="opacity:0.929" fill="#002148" d="M 142.5,84.5 C 127.671,112.828 112.338,140.828 96.5,168.5C 94.8532,165.527 92.8532,162.86 90.5,160.5C 90.5,159.833 90.5,159.167 90.5,158.5C 107.477,133.533 124.81,108.867 142.5,84.5 Z"/></g>
<g><path style="opacity:0.004" fill="#000000" d="M 184.5,93.5 C 185.833,94.1667 185.833,94.1667 184.5,93.5 Z"/></g>
<g><path style="opacity:0.004" fill="#000000" d="M 184.5,95.5 C 185.833,96.1667 185.833,96.1667 184.5,95.5 Z"/></g>
<g><path style="opacity:0.004" fill="#000000" d="M 184.5,97.5 C 185.833,98.1667 185.833,98.1667 184.5,97.5 Z"/></g>
<g><path style="opacity:0.004" fill="#000000" d="M 184.5,99.5 C 185.833,100.167 185.833,100.167 184.5,99.5 Z"/></g>
<g><path style="opacity:0.004" fill="#000000" d="M 184.5,101.5 C 185.833,102.167 185.833,102.167 184.5,101.5 Z"/></g>
<g><path style="opacity:0.004" fill="#000000" d="M 184.5,103.5 C 185.833,104.167 185.833,104.167 184.5,103.5 Z"/></g>
<g><path style="opacity:0.004" fill="#000000" d="M 184.5,122.5 C 185.833,123.167 185.833,123.167 184.5,122.5 Z"/></g>
<g><path style="opacity:0.004" fill="#000000" d="M 184.5,124.5 C 185.833,125.167 185.833,125.167 184.5,124.5 Z"/></g>
<g><path style="opacity:0.004" fill="#000000" d="M 184.5,128.5 C 185.833,129.167 185.833,129.167 184.5,128.5 Z"/></g>
<g><path style="opacity:0.067" fill="#13304a" d="M 184.5,130.5 C 185.428,133.589 186.428,136.755 187.5,140C 186.919,140.893 186.585,141.893 186.5,143C 187.464,149.214 188.297,155.381 189,161.5C 186.158,157.644 184.491,153.31 184,148.5C 183.254,142.449 183.421,136.449 184.5,130.5 Z"/></g>
</svg>
